#!OML:ASF I:\Actors\actors\Patient Classification 2\Patient 1\Session 1\actor1.ASF
:FULLY-SPECIFIED
:DEGREES
420
root -0.924003 18.6001 6.43069 0.958904 -4.75101 -5.93847
lowerback 10.7893 1.55802 -2.19853
upperback 1.52143 1.63103 -3.54814
thorax -4.4184 0.813211 -2.70179
lowerneck -6.80609 -3.24574 -2.30253
upperneck 12.7101 -5.30073 8.65864
head 5.23394 -2.16181 2.72239
rclavicle -3.29983e-014 1.27222e-014
rhumerus -30.89 23.8858 -95.8827
rradius 127.728
rwrist 16.0068
rhand 13.0676 -47.4125
rfingers 7.12502
rthumb 38.0297 -433.204
lclavicle -3.29983e-014 1.27222e-014
lhumerus -29.557 -17.9192 95.291
lradius 123.894
lwrist -25.572
lhand 43.0472 0.290243
lfingers 7.12502
lthumb 64.8679 7.68554
rfemur 9.39131 4.23702 20.6004
rtibia 3.49861e-014
rfoot -16.1267 -11.7748
rtoes -16.0824
lfemur -4.99736 -1.32169 -7.37109
ltibia 28.6519
lfoot -23.0485 9.51027
ltoes -58.7218
421
root -0.912994 18.5968 6.45351 0.92698 -4.22248 -5.96726
lowerback 10.7259 1.44428 -1.93913
upperback 1.16015 1.5122 -3.3177
thorax -4.76443 0.751608 -2.59625
lowerneck -6.94002 -2.86525 -1.79732
upperneck 12.5683 -4.85369 8.81585
head 5.18065 -1.90962 2.71782
rclavicle -2.82274e-014 -3.18055e-015
rhumerus -32.2888 21.7527 -95.7586
rradius 128.04
rwrist 16.4678
rhand 13.5906 -46.8444
rfingers 7.12502
rthumb 38.5234 -432.499
lclavicle -2.82274e-014 -3.18055e-015
lhumerus -29.7561 -18.2132 95.4331
lradius 123.766
lwrist -25.3518
lhand 43.2724 0.152034
lfingers 7.12502
lthumb 65.046 7.25214
rfemur 9.5594 3.71525 20.5895
rtibia 3.33958e-014
rfoot -16.2044 -11.7099
rtoes -16.1459
lfemur -5.08244 -1.60383 -7.34922
ltibia 28.695
lfoot -22.8981 9.36083
ltoes -58.9625
422
root -0.90238 18.5951 6.47488 1.00905 -3.63696 -5.98061
lowerback 10.5228 1.33246 -1.69249
upperback 0.826259 1.40098 -3.11318
thorax -5.0035 0.693422 -2.50617
lowerneck -7.24368 -2.6436 -1.39811
upperneck 12.4513 -4.6164 8.98052
head 5.17997 -1.75959 2.71629
rclavicle -3.20043e-014 6.36111e-015
rhumerus -33.047 20.3564 -95.0287
rradius 128.125
rwrist 16.5824
rhand 14.0534 -47.0419
rfingers 7.12502
rthumb 38.9598 -432.573
lclavicle -3.20043e-014 6.36111e-015
lhumerus -29.7689 -18.5932 95.5358
lradius 123.603
lwrist -25.1699
lhand 43.3227 -0.0413591
lfingers 7.12502
lthumb 65.0856 6.99234
rfemur 9.59792 3.13818 20.5525
rtibia 1.11319e-014
rfoot -16.2897 -11.6669
rtoes -16.4126
lfemur -5.306 -1.91703 -7.34197
ltibia 28.7148
lfoot -22.8226 9.11601
ltoes -58.9162
423
root -0.892796 18.5929 6.49976 1.02169 -3.17229 -6.02962
lowerback 10.1895 1.23459 -1.51435
upperback 0.597275 1.31188 -2.83928
thorax -5.06185 0.648625 -2.30155
lowerneck -7.35197 -2.45698 -1.35039
upperneck 12.0094 -4.38372 9.36196
head 5.05774 -1.63 2.84153
rclavicle 4.77083e-015 -1.11319e-014
rhumerus -33.1794 19.7551 -93.8316
rradius 127.947
rwrist 16.325
rhand 14.0892 -47.4484
rfingers 7.12502
rthumb 38.9937 -432.97
lclavicle 4.77083e-015 -1.11319e-014
lhumerus -29.6531 -18.8479 95.695
lradius 123.445
lwrist -25.0329
lhand 43.1707 -0.122206
lfingers 7.12502
lthumb 64.9657 7.11173
rfemur 9.72095 2.68105 20.5609
rtibia -2.22639e-014
rfoot -16.4505 -11.5806
rtoes -16.3583
lfemur -5.37189 -2.22593 -7.31845
ltibia 28.7019
lfoot -22.8767 8.87715
ltoes -58.6758
424
root -0.883661 18.5897 6.52753 0.990032 -2.78433 -6.10378
lowerback 9.83282 1.16089 -1.34378
upperback 0.38722 1.25474 -2.55382
thorax -5.08601 0.619923 -2.08497
lowerneck -7.30219 -2.33538 -1.45711
upperneck 11.3792 -4.2074 9.80684
head 4.85758 -1.54236 3.00831
rclavicle 4.37326e-015 2.8625e-014
rhumerus -33.5236 18.83 -92.9612
rradius 127.864
rwrist 16.1741
rhand 13.8894 -47.5279
rfingers 7.12502
rthumb 38.8052 -433.103
lclavicle 4.37326e-015 2.8625e-014
lhumerus -29.5881 -19.0842 95.8793
lradius 123.323
lwrist -24.8213
lhand 42.878 -0.186878
lfingers 7.12502
lthumb 64.7337 7.42724
rfemur 9.90293 2.30018 20.5987
rtibia -2.38542e-014
rfoot -16.6376 -11.4515
rtoes -16.0508
lfemur -5.32307 -2.55281 -7.28817
ltibia 28.6544
lfoot -22.9869 8.78046
ltoes -58.5034
